<svg version="1.1" xmlns="http://www.w3.org/2000/svg" viewBox="0 0 384 116" width="384" height="116">
  <!-- svg-source:excalidraw -->
  
  <defs>
    <style>
      @font-face {
        font-family: "Virgil";
        src: url("https://excalidraw.com/Virgil.woff2");
      }
      @font-face {
        font-family: "Cascadia";
        src: url("https://excalidraw.com/Cascadia.woff2");
      }
    </style>
  </defs>
  <g transform="translate(10 21) rotate(0 71 42.5)"><path d="M1.7383782770484686 1.2578114066272974 C46.23088870067149 0.2433909446187319, 93.03149505630135 -1.5640634625963865, 142.5668455865234 -1.7966929282993078 M-0.07606206368654966 0.4081237865611911 C41.976473350450405 0.770608538556844, 82.203101057373 1.6587188483960926, 141.30952279735357 -0.025048946030437946 M143.72659986279905 0.7019771728664637 C142.58446446224116 31.148951080162078, 142.51841327711008 67.62196601834148, 142.03461085818708 83.70073554851115 M141.50314037967473 0.08926727902144194 C141.24147206884808 22.39872694062069, 142.46233287793584 44.69490668736398, 142.42777725029737 84.2356491042301 M143.44377004168928 85.22368238307536 C100.51798729207366 85.32100126517936, 54.518342466652385 85.64266291631385, 1.1565566565841436 85.14636997319758 M141.25389452744275 85.74273418914527 C89.80471306666732 85.11109852558002, 37.38173571508378 85.86400261288509, 0.24959634710103273 85.2652709139511 M-0.4597815964370966 86.88255838491023 C1.3142040973994882 50.66088869376108, 0.2124816781375557 20.333546166308224, -0.16112805344164371 -1.8122676815837622 M-0.8144917590543628 84.66829868685454 C0.9235597699414939 60.060277541633695, -0.14160732929594816 33.765575602650635, 0.5469832615926862 -0.5709796594455838" stroke="#000000" stroke-width="1" fill="none"></path></g><g transform="translate(56.5 50.5) rotate(0 23.5 12.5)"><text x="23.5" y="20" font-family="Cascadia, Segoe UI Emoji" font-size="20px" fill="#000000" text-anchor="middle" style="white-space: pre;" direction="ltr">Text</text></g><g transform="translate(264 35) rotate(0 55 27)"><path d="M0 0 C0 0, 0 0, 0 0 M0 0 C0 0, 0 0, 0 0 M-1.0028847306640694 5.731304401953809 C1.1361600968382426 4.028346019791649, 2.9048413755905074 1.7679600463826992, 4.3343677375041905 0.4044115040299707 M-0.3877135302545378 6.260319370453351 C0.5543537888658578 5.02658626138383, 1.750957244757585 3.7648024719863726, 5.249642471181697 0.031080850943666083 M-1.1580527461041106 11.01607140195328 C4.421870780485486 7.386620132555823, 6.024835318404471 4.698004424690579, 9.55623032743944 0.4927467267110708 M-0.07198589135896094 12.549216805070222 C3.676560276973567 8.49454851561282, 6.88566409490312 2.804410175483836, 10.112317023378742 0.15364641277936708 M1.556613973290636 19.473421593104177 C6.571170547017753 10.720654699773966, 11.660398368308526 6.252475791021405, 15.115186856597145 0.22272013751091269 M-0.2649786398327212 19.376393515524143 C5.945654078014742 11.021108477505317, 12.019117042073209 5.925525653376685, 15.618928226179857 0.3223712646332553 M1.146465318482301 22.98774564610338 C6.679327060695512 16.1705681728104, 10.982745820172696 13.246464425374493, 21.949644238034153 1.0742359416722778 M-0.6227580278926279 24.807592781907974 C7.82005476870577 15.853561587691726, 13.908838098765857 8.861925801415268, 20.3091463309693 0.5997640140518072 M-0.23917557759681785 31.896189298246256 C7.036749873717164 23.116949322600686, 13.690605558493164 16.349097239978818, 26.288650882106634 1.4033064035710634 M-0.4306304491544708 30.178084338780693 C5.987546229854169 22.945908355959936, 12.299669235445203 17.9109672020576, 26.166184244353683 -0.1837645690876304 M1.349756661700038 38.42445068415378 C11.79616972673377 21.64549215950026, 23.673245319609336 7.420461050146734, 31.826221819451845 0.24927945260547446 M-0.7249502047058662 36.24930240474765 C10.606362359681844 26.398173997118157, 19.494364235588108 14.010034724438157, 31.125176381735898 0.08495546609752225 M-0.06440696198036733 41.13221231344693 C12.839392699401179 29.13310453529699, 22.696555129789957 17.101764364419232, 36.76690158974503 -0.05817428593519125 M-0.09382940813442531 42.881314010914195 C11.43195681033887 29.573942237024106, 24.504884046065566 15.085450346438723, 36.91401323005681 1.167815203880938 M-1.7927469089628048 47.614769811415 C14.365852766005112 34.72669916078118, 25.596155944893827 18.583929893827737, 41.63673647362344 -1.499238132652735 M0.5734349275007062 49.57819774155401 C9.630968687392798 36.46917105115129, 20.18052480261852 26.751781519838456, 42.520563579719294 -0.2809997798548096 M-1.3248418986100106 55.657564857456194 C17.843490834594036 38.520890928591, 31.22938453547654 18.1972824044243, 48.59730226076233 0.11122728774214252 M0.8975240926024171 55.48632667254965 C11.01447955549082 41.42268950205209, 22.288458598589674 30.04764953479033, 48.16295229266423 -0.3960827758360459 M4.889790119667822 52.918975604854865 C20.516451719633924 36.62747861670489, 37.01282203023675 18.341555423103507, 53.25667648179895 -0.4764925953523509 M6.883906710026139 54.920908791169865 C22.727655883616265 35.36196662762095, 37.66183463809858 18.259259695573583, 52.75678253429449 -0.8572325831801884 M10.226952357612372 55.21671786545971 C23.411784842705373 37.501183087308306, 37.02514379379002 23.701022460779875, 59.98346617640854 0.5282103433530771 M11.364349126279176 54.496138180747714 C25.145339231517443 38.36988127409409, 40.30346094018367 21.999631281910517, 57.885413541550946 -0.5705268676135695 M16.1638629708609 54.588186443668924 C33.12430344009854 34.257061410256235, 52.3498507094986 12.017942281903402, 65.71778012522836 0.35609028325662706 M16.929259194264414 55.02928635466578 C28.76206714573346 39.24784997275708, 42.95031981581624 23.935861173896235, 63.26718285483648 -0.42474880325361397 M21.000769624088658 53.048598839771806 C31.995304272973215 41.64611165482992, 44.675110615073876 28.245139191524103, 67.28525661793365 0.15322409964759487 M22.30555083842273 54.14259595969772 C36.463850756320944 38.42644883759489, 49.12939657056003 21.105903086599128, 68.72568408609196 1.0275395691733493 M25.671921722932893 52.99081860816658 C44.03089514248796 36.539104128170884, 57.928878893145466 20.634258953627743, 73.20803568516168 1.3808347219242023 M26.823866286656994 54.506854134226145 C45.4653951701611 32.02021057106124, 65.42341943158401 10.445077675879077, 73.65698915072026 -1.186429299450083 M31.059598182068854 53.660531999142506 C42.06854821652468 40.397295802190825, 57.624369637670995 25.526450293254246, 79.01878686658767 0.290467775375717 M31.38885383840808 55.16031915002469 C42.515418703338696 43.621314190589864, 50.8338232875522 32.35320229775954, 78.99992603566227 -0.14070182485026805 M35.80507965713379 53.55607131709782 C47.12933652242179 41.866811548513034, 57.92908522210914 29.5511708113407, 83.0716814428489 0.3238149394003642 M36.94639009657887 53.75229377047596 C50.34380978818734 38.423849294384766, 64.23992623415455 23.08366064301913, 84.70330103132085 0.23297006885539417 M41.622676312802945 54.90359156232179 C58.47361017893205 37.131368782357384, 75.13566045837933 17.959788927775293, 89.85642020362059 -1.4121094107125742 M43.45385773561022 53.862051892353605 C53.98320043012839 42.90477443134113, 63.30014739875024 31.14034478163666, 89.69617649963686 -0.5359444090594394 M47.11070005471359 54.05689378921265 C60.6676373452237 39.98537030483093, 73.4200464641329 26.11346300046083, 93.80920567954004 -1.7451448455648801 M48.34736773340504 53.242411904040225 C58.329586989955715 44.04672046165871, 67.91914739606464 33.029627981790085, 95.35509310601324 -0.21318155771217562 M53.06549229754095 53.97260174805968 C65.1852213831327 41.32099235168806, 74.88354590917695 29.140745076372504, 102.62676991028243 -0.9628082398672646 M53.512037139404164 55.13866332730948 C66.04728091007422 38.900959143737865, 79.96867350954875 25.200227195237026, 101.47434758739078 0.45924345717084947 M59.63633716793179 55.36469482348386 C68.62477761182714 40.8272114246481, 80.27038597139877 27.481483509388344, 105.07734667648506 1.5875295857784764 M59.09315227752 55.286849755766724 C69.22077554184199 42.27459096972413, 81.42014677391691 29.027017091350142, 105.7332149841724 -0.9933900385277852 M62.91978441753287 53.406136775106155 C75.66085322979305 44.874015185971075, 81.68142305925927 31.435767173813815, 109.65864023883266 2.7285300868844047 M63.74674165916491 53.4591475955173 C75.41287714069554 43.27797953911195, 85.4393190202818 30.70760424344492, 111.01016737930847 0.2951279946883574 M69.55397233601941 56.43050447821589 C80.72082613252685 40.83235296617575, 92.00365020268526 27.467500365584602, 109.78456145401944 6.871548674185377 M69.89014889627977 54.0092448058349 C84.21022830185086 36.38781887768184, 100.70461982015445 19.142994029389982, 110.22586001425881 6.794349989038508 M75.87354095402868 55.08652086221123 C89.26305592288769 36.11389878134182, 103.1761720779467 22.212961982459213, 110.9083180646542 10.907038911411256 M74.51319590426745 53.87062383760208 C84.21112476153776 43.44378008626068, 92.91058918801471 32.19808877440889, 110.12247157889786 13.311324967236907 M79.22365981123592 52.813231552381495 C89.89062656876534 43.09502072348439, 100.98212097544494 32.02315213492659, 108.55614732238367 20.453277058183033 M79.14846067006881 54.87548827509252 C84.84319434482477 48.09722894764454, 91.33039348649767 40.624779685452125, 110.95368683463796 20.083073085388918 M85.7710001882784 54.2398282281249 C92.12683625728432 43.83531371387262, 100.9927419261416 35.08248370921423, 111.51405210385462 23.2750237491217 M85.33849948408678 54.998336194188816 C96.35335555094996 43.69247471915621, 105.12544817800234 32.04130559645121, 110.32768273039153 24.03899731209991 M89.81776287483136 55.660825264730704 C96.85368857621688 48.602984443021604, 100.21330589528411 43.85329212899485, 110.42212382374231 29.985152734516518 M90.60612470826219 54.6748868041646 C96.38270958648201 48.49615191022733, 100.50064741225293 42.54661160834219, 111.45770131559942 30.346262169143515 M97.61265040153202 53.435883091597155 C101.4316316183079 47.679730042605435, 106.09675552677106 43.49907640460272, 110.92945563768396 37.199183818765725 M95.9216270079979 54.0456538059025 C98.54623339905649 49.67822450235458, 103.13215424014375 46.10951918904706, 110.9732129431645 37.40807666990235 M102.23090828347006 54.50145656085202 C105.31710348092567 52.32740943792277, 106.00309560120648 47.33605456287771, 110.94858619390882 43.830401636125444 M101.48702701760442 55.10887196059899 C102.91639979851715 52.15763324908896, 105.64108466063922 50.31176800800098, 110.11010406428844 43.959522730369045 M106.26698516510825 53.72786657692032 C107.55615070140949 52.40926812900001, 109.7874059066974 51.05705468561077, 110.38836399987703 50.12501181436611 M106.74044462820913 54.08960991951736 C107.48545279146165 52.98307890215852, 108.64320611436322 51.904052747800414, 110.7825512136369 49.536007217018884" stroke="#868e96" stroke-width="0.5" fill="none"></path><path d="M0.9782995376735926 -0.5030169580131769 C33.19825779180974 1.5967397737316786, 67.02335863932967 1.4274380850605666, 108.0018687043339 0.2042269017547369 M0.12813093792647123 -0.9914953513070941 C22.830157371237874 -0.9503872443921864, 46.00279060844332 -0.17910662787035103, 109.88491010200232 0.4955337541177869 M108.69644639827311 0.16409104131162167 C110.90828571757302 14.43606754075736, 111.38958481987939 30.938198077678685, 111.56679634191096 52.82622038386762 M109.83157038222998 -0.2660793764516711 C109.6474253839068 17.969301187992098, 109.45259082375094 34.61745202373714, 110.526516164653 53.46178396511823 M109.8105531129986 53.20931755565107 C80.45614639017731 55.29932685540989, 47.8876683935523 54.894036549795416, -0.8575090374797583 53.181251814588904 M110.76365038286895 54.16763146687299 C86.60365631058812 54.04609381193295, 63.08461816329508 52.40201302403584, -0.06933218706399202 53.265998234041035 M0.8587666545063257 55.525179674848914 C2.237706707660109 43.18918899092823, -0.6648175848089158 32.63498808667063, 0.9174901638180017 0.16769765876233578 M0.2192622972652316 54.010351289995015 C-0.32276637589558954 40.19716010428965, 0.8243656929768622 28.088304131291807, -0.07356390822678804 0.9965859847143292" stroke="#000000" stroke-width="1" fill="none"></path></g><g transform="translate(284.5 48.5) rotate(0 35 12.5)"><text x="35" y="20" font-family="Cascadia, Segoe UI Emoji" font-size="20px" fill="#000000" text-anchor="middle" style="white-space: pre;" direction="ltr">Digest</text></g><g><g transform="translate(164 63) rotate(0 44.08922016616907 -0.16509475670756046)"><path d="M0.28257106505334373 0.7878811899572611 C14.787711182857553 0.773174383615454, 72.29183601898453 -0.9501942650725445, 87.01292042694986 -1.1180707033723594 M-1.0282178551331163 0.15591486934572463 C13.844099535706142 0.4253547378753623, 74.34143105999877 0.742030533986787, 89.20665818747133 0.3573674285784363" stroke="#000000" stroke-width="1" fill="none"></path></g><g transform="translate(164 63) rotate(0 44.08922016616907 -0.16509475670756046)"><path d="M62.40801358888747 9.187340056921014 C69.37954329614335 8.654516896609747, 79.2689184629254 2.898501542942082, 87.92567437250167 1.9876350281760096 M60.423716073994356 11.16199865138776 C68.18437681666576 8.0073278008739, 73.21579769983013 5.754871061008997, 89.84210612639785 0.06482735052704802" stroke="#000000" stroke-width="1" fill="none"></path></g><g transform="translate(164 63) rotate(0 44.08922016616907 -0.16509475670756046)"><path d="M62.251652848937894 -11.333272840963927 C69.09375110901901 -5.7409249176119435, 79.02980099543413 -5.371400995776192, 87.92567437250167 1.9876350281760096 M60.26735533404478 -9.358614246497181 C68.04656992089032 -7.744751792887429, 73.11432356875702 -5.228936137734182, 89.84210612639785 0.06482735052704802" stroke="#000000" stroke-width="1" fill="none"></path></g></g><g transform="translate(164 10) rotate(0 42 20)"><text x="42" y="16" font-family="Cascadia, Segoe UI Emoji" font-size="16px" fill="#000000" text-anchor="middle" style="white-space: pre;" direction="ltr">Hash</text><text x="42" y="36" font-family="Cascadia, Segoe UI Emoji" font-size="16px" fill="#000000" text-anchor="middle" style="white-space: pre;" direction="ltr">Algorithm</text></g></svg>