<svg version="1.1" xmlns="http://www.w3.org/2000/svg" viewBox="0 0 467.5 370.5" width="467.5" height="370.5">
  <!-- svg-source:excalidraw -->
  
  <defs>
    <style>
      @font-face {
        font-family: "Virgil";
        src: url("https://excalidraw.com/Virgil.woff2");
      }
      @font-face {
        font-family: "Cascadia";
        src: url("https://excalidraw.com/Cascadia.woff2");
      }
    </style>
  </defs>
  <g transform="translate(30.5 30) rotate(0 71 42.5)"><path d="M-1.2580017652362585 -1.0032097194343805 C28.085306915454566 1.1474810793809593, 61.88934900984168 -0.1493192359991371, 141.99797783233225 -1.6120554897934198 M-0.3599624978378415 0.2502668695524335 C46.56517065651715 0.2196801204793155, 91.61416989210993 -0.714729646909982, 142.85406726133078 0.680771698243916 M140.74477110244334 0.8458860423415899 C141.6034688165877 21.05990802822635, 143.7755600026343 43.584040106274195, 141.4335910473019 83.87344430945814 M141.0785748315975 -0.11430395673960447 C142.76092890384606 24.965139708947394, 141.8138684678357 51.03944593109191, 141.55004611145705 85.27584614325315 M140.5684305820614 85.71262668631971 C107.56040552649647 85.14339585440233, 73.23296251744031 83.97510887520387, 0.13692925311625004 86.71197717450559 M142.90340652596205 85.33641471434385 C106.63832312002778 84.19314870143309, 73.08542366642504 85.37792342806235, 0.21895873080939054 84.35689490009099 M1.301904896274209 85.25124805234373 C0.6332789526786655 55.61129213916138, -0.5640489591751248 24.169019560329616, 1.9723112974315882 1.4386383201926947 M-0.14721668232232332 84.70352761913091 C1.2796387263108044 57.1197970979847, -0.45570410410873596 28.717025324702256, -0.42926446069031954 0.9752180175855756" stroke="#000000" stroke-width="1" fill="none"></path></g><g transform="translate(75 59.5) rotate(0 23.5 12.5)"><text x="23.5" y="20" font-family="Cascadia, Segoe UI Emoji" font-size="20px" fill="#000000" text-anchor="middle" style="white-space: pre;" direction="ltr">Text</text></g><g transform="translate(300.5 45) rotate(0 55 27)"><path d="M0 0 C0 0, 0 0, 0 0 M0 0 C0 0, 0 0, 0 0 M-0.09610341486054164 5.772199554045789 C0.4009989038384899 5.002268276735808, 2.498215196494984 3.7257882908734583, 5.101885900231546 -0.3263554837706274 M-0.23213984031694623 6.3579063479351925 C1.0409747024926963 4.986411275934217, 2.786367069296928 3.130530989874276, 4.605481282579249 0.1263458221999222 M-0.45657354955564866 12.918367992758334 C3.450301314148458 6.8649350313583435, 5.486862436666135 2.695801299236491, 11.322005483460558 1.0253030221059682 M0.565161702139269 11.500702558129609 C2.3119153528704204 8.611637450875202, 4.72412083352904 5.449819623196545, 10.750068101984393 -0.5640382137999176 M0.9088982259342213 17.58658095160561 C2.7544343667735998 11.58194755633679, 7.374360276017423 6.612561659847994, 15.9470720156128 0.1512309822184017 M0.14632306242824988 19.32086335485863 C3.0123602946226837 14.369009550054754, 6.226077337756592 10.342572789728344, 14.84259927505948 0.14757173293502834 M-1.017697496134856 24.684521261318682 C8.046760903828776 16.36069267286747, 11.37879231694091 9.131555968927342, 20.197516411820317 0.11193677356238396 M0.7113637656159018 24.20068723214334 C9.107244421414455 15.636428582702788, 15.460360732274857 6.496265738899275, 21.422525898830855 0.5448842592700842 M0.043410341306532985 28.601080681894175 C7.553474016641729 22.58181518484463, 16.097642248875836 10.784918332456424, 27.011408996444555 1.6602436093625368 M0.8286002539609925 30.503354425307563 C8.801679230239918 19.02180364132895, 17.72257015216479 8.445554746904566, 26.67058458705655 -0.2748219590622245 M-2.1901347600948533 36.32562922295307 C6.579317512741874 29.205201966529543, 14.218434513174898 17.132980415344722, 30.162842925122774 -0.713328705982935 M-0.2502358361240944 37.18658821545665 C6.678565402065503 28.393263338814094, 12.860233328995907 21.57818316836348, 32.15374569263945 0.15416209132068204 M-0.11592367369225087 42.36902126911633 C13.02979084057891 26.724540706073732, 29.795846660114524 9.236087433475916, 35.74894086253022 1.9595623278152665 M0.7685793192730301 42.21299469619595 C7.951886069557002 33.50139296499391, 18.075877443455216 23.576943393819718, 37.82548564002042 0.8525165571924767 M0.3475412651895695 49.46522432067327 C14.300230802519671 30.78103392738506, 27.65177467315715 14.394492246964916, 44.00082721430414 -0.47509473484466014 M-0.5286653554067797 48.09544151429914 C10.093874215811418 36.94479704792039, 21.973307889610844 24.060843488629065, 42.493009157102335 -0.360533923064267 M0.9157594621878715 55.72585193202208 C8.110264934330775 44.49984590189976, 17.9160175218561 33.409481989094985, 46.597655895119786 -0.8184886436734153 M-0.4519526322606353 54.89534080814879 C16.302623849477683 37.81508817089869, 30.927563893184924 18.936541361847397, 46.78752704332608 0.4517064223241256 M6.156791092892462 52.32295413144712 C20.86489749981973 36.851643531986184, 36.09705476325099 21.278880553662432, 52.47758256061441 -0.11916209427279156 M5.667272049066895 54.74918962751363 C22.372244353786712 32.81027195396331, 40.03423728225834 12.7739771630255, 53.63147840159452 -0.41302214325976294 M10.27651749404502 55.77541860579708 C26.928018600868143 34.19546655689457, 42.70023551170418 16.057409454001736, 57.15179237546326 0.8021649136465037 M10.917610972583116 53.99872111822673 C25.50481700549288 37.35701484061632, 39.09609477533368 22.126237457442933, 57.20880840634854 1.0229917769577348 M17.394734946282806 54.00931203447016 C28.45344370511272 40.66446094686346, 39.43833763933701 26.294781559005195, 64.51547224530358 -0.24758156551732924 M16.740057928690913 54.09499585617068 C30.172843798115217 39.69333788314046, 43.53652905492768 24.749156747267733, 63.432190535491 0.6610040713591943 M20.26676923928107 54.11602379275566 C35.081612631710485 38.93055565426803, 46.96259921805827 23.9564619845916, 68.16183858481064 1.6413472185250058 M22.30586277933116 55.200295550619124 C37.981790323055634 35.50819717199091, 56.867585967946255 14.100630791764644, 68.9133043384628 -0.35525823828171355 M28.094447903677064 54.7520893100518 C37.5523099629468 43.775269898327394, 46.996106823247516 31.710988587998166, 73.19310954962167 0.8813460701717304 M27.983753689906735 53.431696402454676 C40.24016742103382 39.88092027175703, 51.41769068463019 27.053493076117622, 73.43005766816678 0.6039763614176081 M33.84012797914603 52.61436671164785 C46.07132550940767 34.90364063008641, 62.9699990569038 18.216142067872013, 77.53453280441192 1.8626324897121123 M31.310214897358506 55.179995745950976 C46.85502103917572 38.23809172921735, 60.79190717666599 21.985023643494088, 78.89686444904385 0.9734505172308019 M38.037668246325225 54.839860176942025 C54.82305188620766 37.38284777233088, 67.60948199848559 15.141902368977995, 85.74535775481866 1.3530700315443767 M38.45670894208935 54.35328540699062 C49.31863661304872 41.24515429756529, 59.78003701941526 27.781080128171013, 85.83186690899686 -0.763548632459532 M44.10645699488989 53.48089658122362 C54.88989496069888 41.10285964676271, 68.67553269313296 25.971154699691297, 90.3328633155171 0.9733449459578054 M42.19995443604014 54.69587834484727 C54.124719696874834 43.03966943573241, 63.33756964315029 31.20198157886748, 90.32721334746668 0.24373718412026335 M50.16238425547729 53.90494885389084 C61.30686715184911 38.37344342215846, 70.32916041297412 25.841941368909122, 97.56333014214457 1.5967895373506167 M49.38914829461376 53.03188201040352 C63.19697323333604 36.65164671178244, 79.72465409290683 18.944095850207397, 96.51628036735625 -0.542889269647219 M52.33186956776266 53.26981262023299 C68.1653157283788 38.98369329200164, 84.37392789099584 19.153958285247924, 100.77606839937621 -0.1754411939879006 M52.91624350475107 53.58412498793303 C64.60843703914813 42.92460500091439, 74.65945801283716 29.768249811187292, 101.54395064310634 0.26834590301168504 M59.90677518339276 53.678139139871035 C75.26023285422988 36.70462036564679, 92.8885707760827 17.185833995995146, 106.19438999284935 -1.6145461936595424 M58.527112327864465 53.97243993354115 C70.49199785559823 41.050002499830164, 83.6889564835254 26.53514360200725, 106.0338351526199 0.2427610904795543 M65.93872897901434 52.87906404742595 C73.87064980685605 42.63027366771764, 83.74653432230792 29.736332946653857, 109.5835773082487 -0.6341921311522469 M64.07211921286631 53.759042315833234 C79.63912837307691 36.306248749210596, 93.3573740904097 17.859993484955687, 110.40249191634727 1.1928553947528258 M67.83344736930265 52.96983609318705 C79.73722350740313 41.53426857543273, 95.71914152723114 25.426840216016114, 111.4376193272685 5.628148279268842 M69.75669370919748 53.993909156582966 C83.35418970010504 38.46230161205945, 99.92403149151679 19.763524792832598, 110.7024121132483 6.440720310550731 M76.50564850989493 55.55035008155251 C86.49871649367611 39.124437585261326, 103.4808800212833 22.36898991575025, 110.10230191751751 11.701600476333589 M73.95249366976084 54.2130619691729 C88.0231132253388 39.56828808539802, 101.69217073940473 23.287410904934223, 111.4013603706974 12.552193923087508 M77.69308006546642 54.19832351281164 C89.72871818049799 43.1842684572233, 99.1488492284621 31.667836346494546, 109.80894045564249 18.030612594662983 M80.16768301899727 53.75749340037672 C91.87892752507635 41.05271740456942, 103.79035159386477 28.325072725084283, 110.07235738760694 19.429335450968523 M85.76749144165441 52.86911994136266 C92.95938028159604 47.41757098013809, 96.95218141023047 37.92227079366254, 109.8611159432902 26.393617143878018 M85.51415398480967 54.016740588577015 C92.72495056558154 47.07441884891874, 98.91869213830758 38.84931276326621, 110.23666605038932 24.572836925299143 M89.04866155313412 54.370925617494834 C98.1072705655275 46.64384408230054, 106.7899500561802 40.32105600883618, 111.2289979201359 30.604659749267952 M89.67780486663888 53.74781180554743 C95.57372647118521 48.941054221729615, 100.15617952894549 41.73124099159004, 110.6143643459854 31.627401930353003 M95.6153710555428 54.7645728456064 C98.45309606467868 50.01214380551437, 105.06258063087303 42.43320267019934, 111.7042576668168 37.66793209023103 M95.38576226738778 53.31875981467058 C100.71173090671161 47.58230128268741, 107.55329450357222 41.46315652943018, 111.93550856479803 36.38002854201272 M102.19680976259508 55.531755404831856 C104.16106177429914 52.68238501868297, 105.66019102722903 50.45682525248472, 109.60303051589884 42.51226841604888 M101.26473132355125 54.17342431988196 C104.13797985790295 50.12590951774484, 108.15203101932522 46.225287796051674, 110.87526683771878 43.13175898667045 M106.42941139243942 54.60428607941704 C108.37035859865124 52.66936575039744, 109.20786279896822 50.686180256693476, 110.04871102646356 49.1363321728809 M106.66077289065746 54.255166561930494 C108.12020883557837 52.67120282209656, 109.04296373687575 51.01400527329055, 110.66810517264894 49.911162686794086" stroke="#868e96" stroke-width="0.5" fill="none"></path><path d="M-1.936366816982627 1.637377431616187 C38.64097328763455 0.892342461925, 73.58792131766677 -1.0602901441045105, 110.469452181831 0.9262691643089056 M0.6320601655170321 0.17624967265874147 C32.4115158636123 -1.0334536512382329, 66.18120116833599 0.4054781417362392, 109.53064593207091 -0.1902130050584674 M109.7651498708874 -0.45058239437639713 C111.5983292545937 17.994436503760518, 109.09467924496158 33.73619879484177, 110.03026185370982 54.76994042657316 M110.43370422255248 -0.6634731693193316 C108.98907419560477 20.826914179325104, 109.0524765205197 42.365234152786435, 109.3691809726879 53.734732617624104 M109.20277533866465 55.16837268136442 C83.45766347739846 54.3920303796418, 60.0168519243598 56.10392185198143, -1.1498094405978918 55.54849289916456 M109.07467609178275 53.68962644506246 C80.80408396199346 55.24445735746995, 51.910867434926324 53.726951085869224, 0.6737222922965884 53.248771448619664 M-0.005265315994620323 55.83793162368238 C-1.554107549842447 42.410678402520716, 1.6207969754375517 29.01539806649089, 0.510354021564126 -0.701025078073144 M0.9817030681297183 53.78880168963224 C-0.6741427538357675 34.64520241357386, -0.34976745223626493 18.155553828738633, 0.748926873318851 -0.5508980257436633" stroke="#000000" stroke-width="1" fill="none"></path></g><g transform="translate(321 58.5) rotate(0 35 12.5)"><text x="35" y="20" font-family="Cascadia, Segoe UI Emoji" font-size="20px" fill="#000000" text-anchor="middle" style="white-space: pre;" direction="ltr">Digest</text></g><g><g transform="translate(182.5 72.38318772428988) rotate(0 53.12170394516545 0.20477519680645173)"><path d="M0.982426458969712 1.1076009269803764 C18.783471809203423 1.1848958531173936, 88.86262289521594 -0.4442560582593727, 106.20434626974165 -0.6980505333674727 M0.0390616205893457 0.6434874683059753 C17.7526344908836 1.0267032367329172, 87.46688104625171 0.7709525887123597, 105.36358259772882 0.8387377350384715" stroke="#000000" stroke-width="1" fill="none"></path></g><g transform="translate(182.5 72.38318772428988) rotate(0 53.12170394516545 0.20477519680645173)"><path d="M79.01894103048157 11.440291457804308 C84.31339896620052 6.693267828870415, 91.82800989099965 6.667995074141788, 105.30241295291111 0.11881273936278847 M76.92088839562398 10.341554246837662 C87.12486253502291 8.395708892260842, 94.96415253966379 4.189632957612839, 105.59161542044953 0.2111232862601402" stroke="#000000" stroke-width="1" fill="none"></path></g><g transform="translate(182.5 72.38318772428988) rotate(0 53.12170394516545 0.20477519680645173)"><path d="M79.01867001267311 -9.080917139946186 C84.1145127224843 -8.70093420433733, 91.629191358241 -3.599198175730992, 105.30241295291111 0.11881273936278847 M76.92061737781552 -10.179654350912832 C87.25438599026388 -5.455559740313353, 95.09376408292515 -2.991695232117057, 105.59161542044953 0.2111232862601402" stroke="#000000" stroke-width="1" fill="none"></path></g></g><g transform="translate(284.5 140) rotate(0 71 42.5)"><path d="M-0.9859448168426752 -0.5422538127750158 C40.49016352314503 0.1077663982100785, 79.05970715060832 -1.6242733514122665, 142.52103315852582 -1.2084047999233007 M-0.15569157432764769 0.6120156301185489 C50.9589920591563 -0.08124816937372092, 101.27355533894152 0.16333510952070351, 142.847989638336 -0.6921678828075528 M143.64143501780927 1.7097446713596582 C141.82520759119652 30.136251252610236, 143.82262724651954 56.175529821775854, 143.1964991595596 85.21093110181391 M142.00549729634076 -0.6400083350017667 C142.63157574427314 33.84505929099396, 142.09180403840728 65.9097119923681, 141.22929130960256 84.1208058251068 M141.74648170731962 83.41849402524531 C92.58972364570946 85.10799649430439, 44.32803661376238 84.00885698271915, -1.164589175954461 85.11588750220835 M141.94092952180654 85.60894712340087 C114.04669807776808 84.01131268924102, 84.51891122143715 84.41274296825752, 0.8397008376196027 84.19913273584098 M0.6181967165321112 85.97370372153819 C1.5329165300820022 65.36005151970312, 0.6217401465866714 46.10636368859559, -1.3298710081726313 1.7965644989162683 M-0.08129797410219908 84.66549211274832 C0.544667024863884 51.13271272694692, 0.5020095005165787 18.160414412617683, -0.13373954128473997 0.2586026443168521" stroke="#000000" stroke-width="1" fill="none"></path></g><g transform="translate(330 169.5) rotate(0 23.5 12.5)"><text x="23.5" y="20" font-family="Cascadia, Segoe UI Emoji" font-size="20px" fill="#000000" text-anchor="middle" style="white-space: pre;" direction="ltr">Text</text></g><g transform="translate(252.5 10) rotate(0 102.5 118.5)"><path d="M-1.6556900237678736 1.2299027009712904 C76.76663131665254 0.4789842646443565, 153.13105383634846 -0.4666292616975587, 206.6397383227826 -0.8575009615505487 M205.56758605915385 -1.1289801849919765 C202.8438675856626 83.93560504154235, 203.51043213163436 170.89987047574573, 204.93341173779183 238.4460013490089 M206.58906733490952 236.86340341713063 C150.2837600772547 236.81341321198207, 92.99107709701991 237.35079437840443, -0.4094620577215403 237.73253172352665 M0.6643148773067443 237.40003767386165 C-1.8735791558608197 148.77571068051748, 0.522762771425042 63.72229627345567, 0.30590726551198655 -1.0854648708941905" stroke="#000000" stroke-width="1.5" fill="none" stroke-dasharray="12 8"></path></g><g transform="translate(60 159.5) rotate(0 55 27)"><path d="M0 0 C0 0, 0 0, 0 0 M0 0 C0 0, 0 0, 0 0 M-0.37012496885376667 5.6777667470771 C0.6108594315730941 4.719834050890876, 2.4304122914159767 2.1401581901585107, 5.59904583427543 -0.31917925143267567 M0.06813940744382646 6.737475008194439 C1.267050204566852 3.817947455081072, 3.4171380963444005 1.6508619933390543, 5.012216905462092 0.06159799991522369 M0.49752415056336985 10.568450437902985 C4.423228949687818 7.854714217778957, 8.614486326983798 4.785604786895039, 9.523886081528795 0.803652373988903 M0.18809950063933 11.931173954575836 C3.469987124759129 8.518386564538215, 7.983078432888471 4.391817856683718, 10.944536814791096 -0.5648023215040802 M-1.0506498301914196 20.242363710795217 C3.7181821546165414 12.542627008194309, 7.805147870790316 8.821349220730959, 17.231761859267433 1.414674034987109 M0.7906464412295957 17.45468147462296 C2.2280100996679266 14.848448673493367, 6.433047214384916 11.134034859928466, 16.138866814322252 0.27795948618324307 M0.28409745005883913 23.628368977173327 C6.631419539738186 18.96956518990683, 12.77294046598483 11.713006652625431, 22.918292910138035 -1.2857129318476197 M-0.02203941045335789 24.095975192911087 C6.119314144702017 16.617966328646528, 11.307385970534773 9.855604884107827, 21.549105213301146 0.6549730546935919 M0.400920848413314 29.99076923332011 C9.525887275063907 21.849811212926706, 16.172874345984148 11.283974160834614, 27.89037908301911 -1.5747073503199278 M0.9242881499742523 31.453782881375602 C6.090059900072292 22.330411926052307, 12.822508342142301 16.431505993298426, 25.886051116187485 -0.48999427966654885 M-1.6641767584812364 36.84432511385654 C13.190727186779728 22.70258127145589, 25.62009925212706 8.664738770531809, 30.677972908547915 1.1261012089683895 M0.11280607142481003 37.58250750862186 C11.432598499402953 23.567049553292605, 23.400574542041866 10.353672928635028, 32.72937018838415 0.12419618398540067 M0.947073131021952 42.28778162840359 C13.846686793872228 27.764396603086105, 24.721382227473654 12.613356389328125, 38.071556426399695 0.93544587130663 M-0.4000665096892959 42.5101848557552 C10.731149523323204 29.76931481959437, 19.685158540876458 19.51093980592747, 36.57648416683202 0.30240427992311325 M1.5095275565981083 47.70549690225057 C12.803840663002134 36.15058472611977, 24.772948630077973 19.826379770410494, 40.9331134172117 -2.0877941839070076 M0.26590464357278876 48.78386225704931 C14.237743421774931 33.20409606692835, 28.879850950957465 16.43069722718473, 42.309793091933955 -0.38321566597083745 M-1.1304547011155037 54.92197511479567 C13.318026177215355 39.074052500723525, 28.705533737036987 20.709743195774095, 45.510157170659184 0.5305829186167763 M0.6259320716139527 55.46788153838675 C17.192371823626885 35.36866210958923, 35.379642120629974 13.941997575050344, 47.16695307563084 -0.27428819442277685 M6.6635459084709225 53.88465691932325 C18.82000411435696 39.20257725060187, 30.332182151830565 27.06792774294094, 53.24670271737939 -1.9200748917238109 M6.705015647289628 53.67041943703626 C23.791339601455853 32.798616575951215, 42.53296700702556 14.063102078808711, 52.208098533325554 -0.38264335455012244 M10.103270097099067 52.950320627682 C31.2321059809422 31.68040665714028, 46.38666059503814 14.032370747389074, 60.09729459704758 -0.8600969896394766 M10.479452967107118 53.673638786330905 C27.99068488279527 35.784842781993184, 43.13621640541524 16.622679369653163, 58.286119951958966 -0.07139006207920673 M16.25187352040619 54.94542354427012 C32.42302011138064 35.308839178254686, 49.179118927160474 12.882702081531846, 64.33797909030099 -0.0196666957320204 M16.80918313396931 54.837779849653266 C34.10364583071721 35.23269295047568, 49.780322748848505 14.858705475975299, 63.51388612193395 0.1886572588725457 M22.74554134306754 54.92424566937691 C33.81943851169136 43.60401203891518, 44.53897231446378 29.603595505374475, 69.88033198681488 -0.9636446347121463 M21.815651322317077 54.20305402377701 C34.208104888049306 38.140959301891755, 47.905314026382165 22.95744127597758, 69.23452190519139 1.1379053175788059 M27.60446047072037 54.568713057400586 C39.49937988822274 39.24490815952808, 52.494267210896155 27.01192596125317, 74.0824308172265 1.3082546228183674 M27.349031010053295 54.73321719708473 C38.63118202352521 42.03158514632777, 49.50792659786326 30.219220779167184, 73.48863046713414 -0.02844468507782949 M30.546847318039923 54.66357445863042 C49.668433817354924 34.459723749789916, 68.71584343732854 15.991832422065897, 79.06288262121109 0.8366392021487883 M31.958501746618836 54.63449639135007 C43.501681146246824 42.74335460997476, 52.851696115902 30.62558088572807, 78.9845710447031 0.6585295851762822 M38.79992004066345 53.49622467746464 C54.61552459973424 33.59404638017741, 72.40089104137586 13.138592463495762, 83.5117961794059 1.1022632826773417 M37.359471384916574 53.599163119955634 C52.51374690794967 37.652514635658704, 66.55913386184304 21.531596487100224, 84.56568117830113 -0.8149550457762587 M44.4139263032662 55.33188121419252 C58.89137370430811 38.24705074798448, 74.20833072082354 21.272241463593097, 90.00480978148619 1.5012037396933096 M43.40385384938738 54.12446002967508 C53.392529321944295 41.68756470236662, 64.2350358722176 29.454110218366427, 89.1805544798691 -0.12646061866179537 M50.07311551148544 52.813407623212285 C61.109418201070476 37.46476266272069, 75.09302522703311 24.44216899932309, 96.81406345808924 -2.25531649740509 M48.54729136793415 53.756174258890994 C61.446840635235006 38.63640701891582, 74.13665941442126 25.37932393113878, 95.35026286480993 0.6262453174022653 M54.40976657999639 55.43649015481322 C64.31655496569088 40.501340726056746, 77.5389415140362 29.801459870472293, 101.22222674889022 0.3342481966714317 M52.81943223999773 54.407564079377046 C71.51950630402958 33.04096510037198, 88.93996841734455 13.034311168461308, 101.13863432006443 -0.7558836533104127 M57.15910113544583 56.704170693616305 C73.11695713367507 39.011443331891854, 87.3535278508204 23.52418523127342, 107.33347093452645 -1.038410498678921 M57.63509403949052 55.35764183473859 C78.05887035210162 33.62555104680354, 95.84559349088843 12.621696410461077, 105.6194751360355 -1.3295994549172505 M63.7536064294805 54.82847549924251 C76.77852332572832 39.02556180811676, 92.49597802172713 21.205908697344736, 108.73143777568264 1.7384313720559135 M64.04483652782488 54.79655268108096 C82.41230798686894 34.79464457190157, 98.83259602263045 13.258001842839853, 110.19078864567352 0.06427670207818892 M67.91735825177564 55.432043946981146 C83.10939581356315 36.90288814604113, 95.96522148259966 21.64562050822073, 109.66597562905301 6.615191719610792 M69.9855345669417 54.37095332767786 C79.00707146440148 43.60983747378426, 88.84401586881118 32.20070910393133, 111.41776134043832 7.063265999895137 M74.8209341329685 52.702661466230396 C86.06138320438868 41.971909120595086, 92.80608726203738 31.180767427142804, 112.17622973724636 14.271386607715577 M75.09154132224383 55.182294975411835 C84.03516896812334 43.18791838171346, 94.53416116290595 30.716075103347592, 110.81210316020432 12.517386211247832 M80.39544111273433 55.86843618227957 C91.0484761839516 44.31492122545444, 98.07743855523067 33.11562490019183, 110.12437485190942 20.36435479599126 M80.66496603067215 54.10574995855657 C90.4427789057578 41.54975826868964, 104.08168891944656 27.54412890422761, 110.52203011638387 19.58162624224164 M87.14348797171041 53.59762227452688 C93.4314088340509 42.35641189825548, 103.20972969967482 33.6660954660785, 112.38235134968897 24.947919419058834 M85.14289623262957 55.03378510299466 C90.77305046649565 49.29273983882105, 96.62693174076567 41.9323877169945, 111.1752504078894 24.978357811481928 M91.45321299957196 56.47379661826159 C95.3197011066254 47.602106391193544, 100.51571436312166 44.92873968435917, 111.42618814526026 33.17401672720756 M90.06767554005692 55.195088367999745 C96.46209104201164 47.69033518614882, 103.28106887472843 39.10322160288417, 110.12953733416174 30.54271419074233 M95.40925622695622 53.395682142881945 C99.42594101773939 51.27783310901281, 100.96636898343492 46.106098836395894, 112.4909158942605 38.44722902483567 M95.55412586835709 54.39814220445444 C99.75996533323251 49.012683120895495, 103.357181584142 44.78875108278749, 111.28389249810377 36.22087314340546 M101.81232757258215 54.19196129059979 C103.32098807587776 51.40792212929722, 108.71367456714222 45.03901979394465, 110.85590460716642 42.99752799368083 M100.42710608078153 55.16533058281617 C104.42346587031325 50.912068435284624, 108.86147029914315 46.31178339407554, 110.22907621675998 43.36429468419023 M106.83915935658317 53.9482632625206 C107.66017611040333 53.12859052659598, 108.26452226133496 51.86920360807093, 110.09883241132265 49.34570070577694 M106.65611515423682 54.421571801631764 C107.9330882392519 52.61822708839335, 109.20657959145059 51.32126350058705, 110.7031163777261 49.73704296693114" stroke="#868e96" stroke-width="0.5" fill="none"></path><path d="M-0.35007174871861935 1.6866176035255194 C29.727909552864734 0.9895677733235062, 61.252586182206876 1.712653474789113, 109.30334208346903 -0.37428886629641056 M0.8324567331001163 -0.4810365242883563 C36.7476786095649 0.2637634824030102, 74.56624654773623 1.1829055796377361, 110.75093709956855 0.48473327327519655 M110.21624253131449 -1.7567709181457758 C108.78135779103265 20.595757563225927, 109.1802060266398 36.622043597698216, 111.65955237485468 54.25268661044538 M109.66411959659308 0.7170471446588635 C110.28055222688243 20.54432407617569, 109.98698948679493 40.05280389618129, 109.34022458922118 53.981146295554936 M109.33452252484858 54.73679696582258 C79.88517716620117 52.180310672987254, 45.86018826812506 54.7782476012595, 0.9559730086475611 55.77310042642057 M109.796810711734 53.84986611176282 C70.56832029297948 54.78228655094281, 29.14008755702524 55.45330357188359, 0.44022660981863737 54.17868255544454 M0.37885270453989506 53.59890084527433 C-1.3126946390233933 40.977266321517526, -1.4788221419416367 30.034150093048808, 1.9670790825039148 0.8743915464729071 M0.169952685944736 53.78610323835164 C0.520649454239756 38.6823523554951, 0.2494732650555671 23.199806802533566, -0.3504545437172055 -0.7912797732278705" stroke="#000000" stroke-width="1" fill="none"></path></g><g transform="translate(80.5 173) rotate(0 35 12.5)"><text x="35" y="20" font-family="Cascadia, Segoe UI Emoji" font-size="20px" fill="#000000" text-anchor="middle" style="white-space: pre;" direction="ltr">Digest</text></g><g transform="translate(44 254.5) rotate(0 71 42.5)"><path d="M-1.2816602196544409 0.9795370604842901 C41.7039592532441 0.5051242634467781, 84.24436731562018 -1.5717873647995293, 142.70213500596583 0.758872976526618 M-0.11406392324715853 0.020360936410725117 C40.30065588839352 1.6225748981349168, 79.66672591213137 1.1678051377646623, 142.55983426701277 -0.24009702634066343 M140.9110101852566 1.3726525213569403 C141.4017614966724 26.02558634756133, 143.75145545066334 55.952192277647555, 143.43537280894816 83.8808607365936 M142.58271982800215 0.4688174920156598 C142.00365874501875 17.02340919477865, 141.0547262463253 34.22438322938979, 141.91283273231238 85.34882145095617 M143.92633722163737 83.22402565740049 C99.9068290868774 86.34508843140677, 58.884614424407474 87.2962262721546, 1.330683747306466 86.43516623042524 M142.88708090316504 85.28227667976171 C92.72293589487671 85.7401035794057, 44.330880844779315 84.96549243414775, -0.8143661366775632 84.73221643734723 M-1.4572977628558874 83.77968918345869 C-1.784437665203586 60.67199471639469, 1.8060666830744596 37.940389345400035, -0.24566020630300045 1.7361815478652716 M0.9894184721633792 85.219069798477 C0.5737824999261647 63.0903794192709, -0.49491432677023117 39.8429956883192, 0.13406651746481657 -0.4751354558393359" stroke="#000000" stroke-width="1" fill="none"></path></g><g transform="translate(89.5 284) rotate(0 23.5 12.5)"><text x="23.5" y="20" font-family="Cascadia, Segoe UI Emoji" font-size="20px" fill="#000000" text-anchor="middle" style="white-space: pre;" direction="ltr">Text</text></g><g transform="translate(10 137.5) rotate(0 102.5 111.5)"><path d="M-0.6834896404350549 1.518126559465006 C78.1666623714409 -1.2289602099699992, 158.20171252899252 -0.21858778443527405, 204.605404643439 1.4845034430027753 M206.45230996163903 1.619022278205971 C206.07490294433305 57.008214336819634, 205.7455801723399 111.93201776565272, 205.47638479814995 223.18632269569974 M204.38464216237895 221.3735001943875 C162.98662519050964 224.4798151808338, 119.29363963335894 223.2566403586726, -1.7577647318018228 222.40103119421252 M0.49829723850752855 222.8307583969132 C-2.2566426933459365 140.07735855280905, -1.2698812810388171 57.820812703875454, -0.06848449864337891 -0.5734004145435287" stroke="#000000" stroke-width="1.5" fill="none" stroke-dasharray="12 8"></path></g><g><g transform="translate(244.5 181) rotate(0 -34.192450980581384 0.5805283311754579)"><path d="M-0.5988850001245737 -0.7778410132974386 C-11.944545714432994 -0.5328480617453655, -57.584983917449904 1.6079874419917664, -69.1635528806597 1.9388976756483316 M1.2875616454705598 1.4281885093823075 C-10.047592232661941 1.3086705087001125, -57.64571934306373 0.10825763725986084, -69.67246360663324 0.3092442065849901" stroke="#000000" stroke-width="1" fill="none"></path></g><g transform="translate(244.5 181) rotate(0 -34.192450980581384 0.5805283311754579)"><path d="M-42.7063854576076 -8.358100292485268 C-45.718373591545244 -7.905533989848439, -52.84970671354973 -6.277209870463533, -68.15424342971295 -1.68459567386657 M-41.28778817755977 -9.248795103494139 C-48.16623325308137 -7.7084899359923496, -56.00613563228116 -3.9017670547477845, -69.43170147255063 0.13821850851178175" stroke="#000000" stroke-width="1" fill="none"></path></g><g transform="translate(244.5 181) rotate(0 -34.192450980581384 0.5805283311754579)"><path d="M-42.8511916065745 12.162597394607658 C-45.91307761720791 8.32293692281975, -53.014117155220035 5.658311582525398, -68.15424342971295 -1.68459567386657 M-41.43259432652667 11.271902583598788 C-48.222515992126155 7.318926955525369, -56.02364557846719 5.631098904952969, -69.43170147255063 0.13821850851178175" stroke="#000000" stroke-width="1" fill="none"></path></g></g></svg>